<?xml version="1.0" standalone="no"?>
<!DOCTYPE svg PUBLIC "-//W3C//DTD SVG 20010904//EN"
 "http://www.w3.org/TR/2001/REC-SVG-20010904/DTD/svg10.dtd">
<svg version="1.0" xmlns="http://www.w3.org/2000/svg"
 width="213.000000pt" height="250.000000pt" viewBox="0 0 213.000000 250.000000"
 preserveAspectRatio="xMidYMid meet">

<g transform="translate(0.000000,250.000000) scale(0.100000,-0.100000)"
fill="#000000" stroke="none">
<path d="M939 2362 c-158 -82 -155 -302 4 -384 59 -29 161 -23 213 14 21 15
41 25 45 22 4 -2 24 -53 43 -112 105 -314 91 -434 -85 -752 -50 -91 -106 -195
-124 -232 l-32 -67 -69 47 c-38 25 -128 106 -199 179 -72 73 -134 133 -138
133 -16 0 -3 -22 67 -117 83 -111 147 -173 249 -241 51 -34 66 -49 62 -63 -3
-9 -25 -65 -49 -124 -37 -89 -46 -104 -54 -89 -9 17 -280 576 -378 780 l-35
71 56 89 c30 48 55 90 55 93 -1 5 -201 131 -220 139 -4 2 -38 -45 -74 -105
-52 -84 -63 -110 -53 -119 6 -6 53 -36 102 -67 l90 -56 224 -460 c124 -254
230 -461 236 -461 24 0 44 28 70 100 55 147 155 362 228 492 148 264 176 337
184 479 7 119 -11 214 -73 387 -25 70 -45 132 -45 137 14 119 12 153 -7 192
-58 113 -182 153 -293 95z m196 -56 c51 -39 68 -78 63 -146 -7 -96 -65 -150
-163 -150 -87 0 -154 61 -162 148 -13 140 151 232 262 148z m-702 -667 c76
-45 75 -41 22 -124 -23 -37 -40 -53 -48 -49 -22 14 -122 77 -125 80 -4 3 71
134 77 134 3 0 36 -18 74 -41z"/>
<path d="M374 1579 c-10 -17 13 -36 27 -22 12 12 4 33 -11 33 -5 0 -12 -5 -16
-11z"/>
<path d="M1278 1212 c-41 -56 -56 -92 -36 -92 31 0 148 56 148 71 0 17 -50 69
-66 69 -5 0 -26 -22 -46 -48z"/>
<path d="M1297 1100 c-96 -37 -147 -70 -147 -96 0 -27 23 -24 88 9 37 19 97
44 135 56 37 13 67 25 67 27 0 15 -22 44 -33 43 -7 0 -56 -18 -110 -39z"/>
<path d="M1345 1011 c-55 -21 -127 -48 -160 -61 -69 -26 -95 -46 -95 -71 0
-31 17 -30 112 7 85 33 227 84 235 84 2 0 14 -25 28 -55 25 -57 30 -61 54 -46
13 8 9 23 -21 93 -20 45 -40 83 -45 85 -4 1 -53 -15 -108 -36z"/>
<path d="M1063 788 c-28 -31 -55 -86 -91 -188 -17 -47 -33 -93 -37 -102 -5
-13 -1 -20 16 -27 23 -8 25 -4 55 79 44 124 80 199 99 206 28 11 63 -16 127
-98 82 -104 94 -104 176 0 64 82 99 109 127 98 19 -7 55 -82 99 -206 29 -82
33 -87 54 -79 l22 8 -39 109 c-66 186 -91 222 -154 222 -34 0 -45 -7 -90 -53
-29 -29 -63 -70 -77 -90 -14 -20 -27 -37 -30 -37 -3 0 -16 17 -30 37 -14 20
-48 61 -77 90 -45 46 -56 53 -90 53 -28 0 -45 -7 -60 -22z"/>
<path d="M430 396 c0 -4 73 -177 118 -279 9 -20 20 -36 25 -34 11 3 139 309
132 315 -5 5 -18 -23 -81 -177 -21 -52 -40 -88 -42 -80 -4 13 -29 73 -52 124
-5 11 -20 46 -34 78 -19 42 -31 57 -46 57 -11 0 -20 -2 -20 -4z"/>
<path d="M1352 238 l2 -163 6 145 c3 80 7 139 8 132 1 -7 12 -34 23 -60 12
-26 30 -67 41 -92 42 -100 52 -120 58 -120 5 0 59 115 107 230 l23 55 0 -142
c0 -142 0 -143 23 -143 22 0 22 0 20 157 -2 145 -3 158 -20 161 -15 2 -29 -21
-72 -120 -30 -68 -57 -127 -61 -131 -4 -4 -17 16 -29 45 -12 29 -26 62 -31 73
-5 11 -20 46 -34 78 -19 43 -30 57 -45 57 -20 0 -21 -5 -19 -162z"/>
<path d="M1990 266 c0 -13 -6 -27 -12 -30 -10 -5 -10 -7 0 -12 8 -4 12 -28 12
-68 0 -35 5 -67 12 -74 17 -17 43 -15 59 5 11 15 11 16 0 6 -28 -24 -41 -3
-41 63 0 57 2 64 20 64 11 0 20 5 20 10 0 6 -9 10 -20 10 -15 0 -20 7 -20 25
0 16 -6 25 -15 25 -9 0 -15 -9 -15 -24z"/>
<path d="M811 216 c-12 -13 -24 -38 -26 -56 -8 -62 80 -117 116 -73 13 15 12
15 -9 4 -19 -10 -28 -10 -48 4 -13 8 -24 21 -24 28 0 6 -3 22 -6 35 -6 21 -4
22 50 22 61 0 72 13 38 43 -26 24 -65 21 -91 -7z m77 2 c21 -21 13 -28 -28
-28 -22 0 -40 4 -40 8 0 14 23 32 40 32 9 0 21 -5 28 -12z"/>
<path d="M1010 230 c0 -6 11 -36 25 -66 14 -30 25 -58 25 -63 0 -5 6 -14 14
-20 11 -9 18 -1 37 43 12 30 25 53 29 51 4 -2 13 -22 20 -45 23 -69 33 -67 70
16 18 41 30 77 28 79 -3 3 -16 -22 -29 -55 -13 -33 -26 -60 -29 -60 -3 0 -11
15 -18 33 -6 18 -18 42 -26 52 -14 19 -16 17 -38 -32 -13 -29 -25 -53 -28 -53
-3 0 -17 28 -32 62 -24 57 -48 86 -48 58z"/>
<path d="M1775 215 c-34 -33 -34 -84 1 -119 30 -29 61 -33 90 -11 18 14 17 14
-9 5 -31 -11 -66 1 -68 23 -1 7 -3 24 -5 40 -3 27 -2 27 52 27 59 0 69 13 36
43 -27 24 -69 21 -97 -8z m85 -5 c10 -19 8 -20 -35 -20 -43 0 -45 1 -35 20 6
12 21 20 35 20 14 0 29 -8 35 -20z"/>
</g>
</svg>
